<svg xmlns="http://www.w3.org/2000/svg" width="16" height="16" viewBox="0 0 16 16">
  <metadata><?xpacket begin="﻿" id="W5M0MpCehiHzreSzNTczkc9d"?>
<x:xmpmeta xmlns:x="adobe:ns:meta/" x:xmptk="Adobe XMP Core 5.6-c140 79.160451, 2017/05/06-01:08:21        ">
   <rdf:RDF xmlns:rdf="http://www.w3.org/1999/02/22-rdf-syntax-ns#">
      <rdf:Description rdf:about=""/>
   </rdf:RDF>
</x:xmpmeta>
                                                                                                    
                                                                                                    
                                                                                                    
                                                                                                    
                                                                                                    
                                                                                                    
                                                                                                    
                                                                                                    
                                                                                                    
                                                                                                    
                                                                                                    
                                                                                                    
                                                                                                    
                                                                                                    
                                                                                                    
                                                                                                    
                                                                                                    
                                                                                                    
                                                                                                    
                                                                                                    
                           
<?xpacket end="w"?></metadata>
<defs>
    <style>
      .cls-1 {
        fill: #c4c5c8;
        fill-rule: evenodd;
      }
    </style>
  </defs>
  <path id="比特币" class="cls-1" d="M2088,3812a8,8,0,1,1-8,8A8,8,0,0,1,2088,3812Zm-3,4.85v7.33h0.96v-7.33H2085Zm2.77,3.08h-0.92v0.86h1.24v-0.86h-0.32Zm2.84,1.01a2.113,2.113,0,0,0-1.1-.66,1.913,1.913,0,0,0,.83-0.68,1.505,1.505,0,0,0,.27-0.89,1.616,1.616,0,0,0-.31-0.96,1.785,1.785,0,0,0-.86-0.69,2.643,2.643,0,0,0-.46-0.13v0.93a0.889,0.889,0,0,1,.41.33,1.048,1.048,0,0,1,.19.64,1,1,0,0,1-.2.64,0.985,0.985,0,0,1-.4.3v1.13l0.07,0.02a1.161,1.161,0,0,1,.63.42,1.1,1.1,0,0,1,.23.71,1.128,1.128,0,0,1-.16.62,1.05,1.05,0,0,1-.4.41,1.2,1.2,0,0,1-.37.15v0.89a1.909,1.909,0,0,0,.33-0.06,2.412,2.412,0,0,0,.87-0.37,1.928,1.928,0,0,0,.59-0.68,2.122,2.122,0,0,0,.23-0.96,1.693,1.693,0,0,0-.39-1.11h0Zm-3.76,3.24h1.24v-0.86h-1.24v0.86Zm0-4.25v0.86h1.24v-0.86h-1.24Zm1.13-3.08h-1.13v0.86h0.79c0.16,0,.31,0,0.45.01v-0.87h-0.11Zm-1.93.86v2.22h0.8v0.86h-0.8v2.53h0.8v0.86h-0.89v-7.33h0.89v0.86h-0.8Zm-0.09-1.71h0.89v0.85h-0.89V3816Zm0,8.18h0.89V3825h-0.89v-0.82Zm3.02-7.25v0.93c-0.05-.02-0.09-0.03-0.13-0.05a3.85,3.85,0,0,0-.76-0.09v-0.87A5.354,5.354,0,0,1,2088.98,3816.93Zm0-.93v0.93a5.354,5.354,0,0,0-.89-0.08V3816h0.89Zm0,3.77v1.13a3.8,3.8,0,0,0-.89-0.1v-0.87a3.084,3.084,0,0,0,.68-0.08A1.8,1.8,0,0,0,2088.98,3819.77Zm0,3.46v0.89a6.653,6.653,0,0,1-.89.06v-0.86a4.632,4.632,0,0,0,.65-0.04,2.048,2.048,0,0,0,.24-0.05h0Zm-0.89.95a6.653,6.653,0,0,0,.89-0.06V3825h-0.89v-0.82Z" transform="translate(-2080 -3812)"/>
</svg>
