<svg xmlns="http://www.w3.org/2000/svg" xmlns:xlink="http://www.w3.org/1999/xlink" viewBox="0 0 150 30"><defs><style>.cls-1{fill:none;}.cls-2{fill:#fff;}.cls-3{fill:#3d7df7;}.cls-4{fill:url(#未命名的渐变_37);}.cls-5{fill:url(#未命名的渐变_37-2);}</style><linearGradient id="未命名的渐变_37" x1="-405.38" y1="-801.95" x2="-405.36" y2="-806.03" gradientTransform="translate(424.68 825.08)" gradientUnits="userSpaceOnUse"><stop offset="0" stop-color="#1949b8" stop-opacity="0"/><stop offset="1" stop-color="#1949b8"/></linearGradient><linearGradient id="未命名的渐变_37-2" x1="-1934.62" y1="1060.94" x2="-1934.6" y2="1056.87" gradientTransform="translate(1957.84 -1041.74)" xlink:href="#未命名的渐变_37"/></defs><title>资源 16</title><g id="图层_2" data-name="图层 2"><g id="图层_1-2" data-name="图层 1"><rect class="cls-1" width="150" height="30"/><path class="cls-2" d="M92.64,15c0-5.93,3.92-9.36,8.44-9.36A7.56,7.56,0,0,1,106.45,8l-2.13,2.59a4.51,4.51,0,0,0-3.15-1.42c-2.45,0-4.39,2.16-4.39,5.74s1.71,5.81,4.32,5.81A4.72,4.72,0,0,0,104.6,19l2.12,2.53A7.33,7.33,0,0,1,101,24.2C96.43,24.2,92.64,21.06,92.64,15Z"/><path class="cls-2" d="M109.15,14.86c0-5.84,3.3-9.18,8.11-9.18s8.12,3.37,8.12,9.18-3.3,9.34-8.12,9.34S109.15,20.69,109.15,14.86Zm12.09,0c0-3.58-1.54-5.7-4-5.7s-4,2.12-4,5.7,1.54,5.85,4,5.85S121.24,18.44,121.24,14.86Z"/><path class="cls-2" d="M130.33,6h4.4l2.9,7.94c.36,1.06.67,2.2,1,3.3h.11c.36-1.1.66-2.24,1-3.3L142.59,6H147V23.87h-3.68V17.31c0-1.74.33-4.34.52-6.07h-.11l-1.47,4.23-2.52,6.84H137.5L135,15.47l-1.43-4.23h-.11c.19,1.73.52,4.33.52,6.07v6.56h-3.62Z"/><path class="cls-2" d="M61.85,24.56H58.44c-5.11,0-9.1-3.19-9.1-9.44s4.08-9.71,9-9.71c2.69,0,2.53,0,4.24,0L64.5,9l-6,0c-2.85,0-4.88,2.25-4.88,6s1.73,6,5.22,6a3.39,3.39,0,0,0,2-.55V17.25H57.74V13.83h6.79l0,6"/><path class="cls-2" d="M75.28,17.52v0c-.45,1.17-1,2.12-1.42,3.11l-1.79,3.89h-4.6l5.28-9.83-5-9.27h4.81l1.66,3.62c.43.87.84,1.86,1.39,3.06h.12c.44-1.2.84-2.19,1.22-3.06l1.52-3.62H83.1l-5,9.48L81,19.83H76.79"/><polygon class="cls-3" points="83.62 24.56 78.98 24.56 78.32 23.05 82.68 23.05 83.62 24.56"/><polygon class="cls-3" points="82.3 22.29 78.13 22.29 77.38 20.78 81.35 20.78 82.3 22.29"/><rect class="cls-2" x="88.95" y="22.22" width="2.31" height="2.31" transform="translate(113.48 -66.73) rotate(90)"/><path class="cls-3" d="M39.14,12.16,27.22.24,24.39,3.07,36.31,15l-9.09,9.1-3.14-3.14,6-6-2.82-2.82h0L24.08,9h0L22.67,7.61,21.26,6.2,18.44,9h0L15.3,12.16h0L12.48,15l2.82,2.83h0l3.14,3.13L15.3,24.08,6.2,15,18.12,3.07,15.3.24,3.38,12.16.56,15l2.82,2.83,9.1,9.09,2.82,2.83,2.82-2.83,3.14-3.13,3.13,3.13h0l2.83,2.83L39.14,17.81,42,15ZM18.12,15l3.14-3.13L24.39,15l-3.13,3.14Z"/><rect class="cls-4" x="17.3" y="22.13" width="3.99" height="1.55" transform="translate(21.85 -6.94) rotate(45)"/><rect class="cls-5" x="21.22" y="18.21" width="3.99" height="1.55" transform="translate(26.21 48.82) rotate(-135)"/></g></g></svg>