<?xml version="1.0" encoding="UTF-8"?>
<svg width="13px" height="16px" viewBox="0 0 13 16" version="1.1" xmlns="http://www.w3.org/2000/svg" xmlns:xlink="http://www.w3.org/1999/xlink">
    <!-- Generator: Sketch 60 (88103) - https://sketch.com -->
    <title>hot备份</title>
    <desc>Created with Sketch.</desc>
    <defs>
        <polygon id="path-1" points="4.22916676e-17 0 13 0 13 16 4.22916676e-17 16"></polygon>
    </defs>
    <g id="首页" stroke="none" stroke-width="1" fill="none" fill-rule="evenodd">
        <g id="活动页" transform="translate(-673.000000, -91.000000)">
            <g id="组1" transform="translate(360.000000, 84.000000)">
                <g id="hot备份" transform="translate(313.000000, 7.000000)">
                    <mask id="mask-2" fill="white">
                        <use xlink:href="#path-1"></use>
                    </mask>
                    <g id="Clip-2"></g>
                    <path d="M3.65871985,15.9986898 C2.66032346,13.7800209 3.19276189,12.5090992 3.95942419,11.3117454 C4.79923732,9.99989082 5.01603281,8.70205111 5.01603281,8.70205111 C5.01603281,8.70205111 5.67671281,9.61906889 5.41201718,11.0531461 C6.57888158,9.66575848 6.7992445,7.45538732 6.62258256,6.60939648 C9.25866935,8.57851822 10.3853816,12.8405914 8.86753446,16 C16.9448389,11.1172054 10.8765345,3.8108595 9.82107789,2.98789584 C10.1733799,3.81024412 10.2398603,5.20408335 9.52945934,5.88048695 C8.32485825,1.00023325 5.34678158,0 5.34678158,0 C5.69951089,2.51627535 4.07023738,5.26681257 2.49977067,7.32294133 C2.44402963,6.32014729 2.38596605,5.62776363 1.89176596,4.66717287 C1.7803582,6.49036977 0.477559976,7.97570235 0.12483066,9.8015196 C-0.353260261,12.2754527 0.483004018,14.0852303 3.65994615,15.9986898 L3.65871985,15.9986898 Z" id="Fill-1" fill="#FFFFFF" mask="url(#mask-2)"></path>
                </g>
            </g>
        </g>
    </g>
</svg>