<svg xmlns="http://www.w3.org/2000/svg" width="15" height="15" viewBox="0 0 15 15">
  <metadata><?xpacket begin="﻿" id="W5M0MpCehiHzreSzNTczkc9d"?>
<x:xmpmeta xmlns:x="adobe:ns:meta/" x:xmptk="Adobe XMP Core 5.6-c140 79.160451, 2017/05/06-01:08:21        ">
   <rdf:RDF xmlns:rdf="http://www.w3.org/1999/02/22-rdf-syntax-ns#">
      <rdf:Description rdf:about=""/>
   </rdf:RDF>
</x:xmpmeta>
                                                                                                    
                                                                                                    
                                                                                                    
                                                                                                    
                                                                                                    
                                                                                                    
                                                                                                    
                                                                                                    
                                                                                                    
                                                                                                    
                                                                                                    
                                                                                                    
                                                                                                    
                                                                                                    
                                                                                                    
                                                                                                    
                                                                                                    
                                                                                                    
                                                                                                    
                                                                                                    
                           
<?xpacket end="w"?></metadata>
<defs>
    <style>
      .cls-1 {
        fill: #c4c5c8;
        fill-rule: evenodd;
      }
    </style>
  </defs>
  <path id="飞机" class="cls-1" d="M1949.77,3809.09a0.528,0.528,0,0,1,.22.54l-2.14,12.85a0.529,0.529,0,0,1-.27.38,0.559,0.559,0,0,1-.26.07,0.787,0.787,0,0,1-.2-0.04l-3.79-1.55-2.03,2.47a0.477,0.477,0,0,1-.41.19,0.484,0.484,0,0,1-.18-0.03,0.572,0.572,0,0,1-.26-0.2,0.538,0.538,0,0,1-.09-0.31v-2.92l7.23-8.86-8.95,7.74-3.3-1.35a0.5,0.5,0,0,1-.34-0.46,0.506,0.506,0,0,1,.27-0.5l13.93-8.04a0.484,0.484,0,0,1,.26-0.07A0.538,0.538,0,0,1,1949.77,3809.09Z" transform="translate(-1935 -3809)"/>
</svg>
