<svg xmlns="http://www.w3.org/2000/svg" width="16" height="14" viewBox="0 0 16 14">
  <metadata><?xpacket begin="﻿" id="W5M0MpCehiHzreSzNTczkc9d"?>
<x:xmpmeta xmlns:x="adobe:ns:meta/" x:xmptk="Adobe XMP Core 5.6-c140 79.160451, 2017/05/06-01:08:21        ">
   <rdf:RDF xmlns:rdf="http://www.w3.org/1999/02/22-rdf-syntax-ns#">
      <rdf:Description rdf:about=""/>
   </rdf:RDF>
</x:xmpmeta>
                                                                                                    
                                                                                                    
                                                                                                    
                                                                                                    
                                                                                                    
                                                                                                    
                                                                                                    
                                                                                                    
                                                                                                    
                                                                                                    
                                                                                                    
                                                                                                    
                                                                                                    
                                                                                                    
                                                                                                    
                                                                                                    
                                                                                                    
                                                                                                    
                                                                                                    
                                                                                                    
                           
<?xpacket end="w"?></metadata>
<defs>
    <style>
      .cls-1 {
        fill: #c4c5c8;
        fill-rule: evenodd;
      }
    </style>
  </defs>
  <path id="推特" class="cls-1" d="M2048.38,3815.98c0-.15,0-0.31-0.01-0.46a6.732,6.732,0,0,0,1.64-1.8,6,6,0,0,1-1.89.53,3.445,3.445,0,0,0,1.45-1.92,6.423,6.423,0,0,1-2.09.82,3.241,3.241,0,0,0-2.4-1.16,3.361,3.361,0,0,0-3.28,3.5,4.278,4.278,0,0,0,.08.81,9.2,9.2,0,0,1-6.77-3.82,3.829,3.829,0,0,0,1.02,4.79,3.114,3.114,0,0,1-1.49-.47v0.05a3.544,3.544,0,0,0,2.64,3.53,3.151,3.151,0,0,1-.87.12,3.272,3.272,0,0,1-.62-0.07,3.379,3.379,0,0,0,3.07,2.5,6.226,6.226,0,0,1-4.08,1.51,5.109,5.109,0,0,1-.78-0.05,8.715,8.715,0,0,0,5.04,1.61c6.04,0.01,9.34-5.36,9.34-10.02h0Zm0,0" transform="translate(-2034 -3812)"/>
</svg>
