<svg xmlns="http://www.w3.org/2000/svg" width="20" height="16" viewBox="0 0 20 16">
  <metadata><?xpacket begin="﻿" id="W5M0MpCehiHzreSzNTczkc9d"?>
<x:xmpmeta xmlns:x="adobe:ns:meta/" x:xmptk="Adobe XMP Core 5.6-c140 79.160451, 2017/05/06-01:08:21        ">
   <rdf:RDF xmlns:rdf="http://www.w3.org/1999/02/22-rdf-syntax-ns#">
      <rdf:Description rdf:about=""/>
   </rdf:RDF>
</x:xmpmeta>
                                                                                                    
                                                                                                    
                                                                                                    
                                                                                                    
                                                                                                    
                                                                                                    
                                                                                                    
                                                                                                    
                                                                                                    
                                                                                                    
                                                                                                    
                                                                                                    
                                                                                                    
                                                                                                    
                                                                                                    
                                                                                                    
                                                                                                    
                                                                                                    
                                                                                                    
                                                                                                    
                           
<?xpacket end="w"?></metadata>
<defs>
    <style>
      .cls-1 {
        fill: #c4c5c8;
        fill-rule: evenodd;
      }
    </style>
  </defs>
  <path id="微信" class="cls-1" d="M1986,3819.38c0-2.72-2.77-4.94-5.89-4.94-3.3,0-5.89,2.22-5.89,4.94s2.59,4.93,5.89,4.93a9.385,9.385,0,0,0,2.08-.33l1.91,1.02-0.53-1.7A5.167,5.167,0,0,0,1986,3819.38Zm-7.8-.85a0.68,0.68,0,1,1,0-1.36A0.7,0.7,0,1,1,1978.2,3818.53Zm3.82,0a0.68,0.68,0,1,1,0-1.36A0.7,0.7,0,1,1,1982.02,3818.53Zm-2.48-4.69c0.23,0,.45.02,0.68,0.04-0.61-2.8-3.66-4.88-7.14-4.88-3.89,0-7.08,2.6-7.08,5.91a5.7,5.7,0,0,0,2.83,4.7l-0.71,2.09,2.48-1.22a13.318,13.318,0,0,0,2.48.34q0.33,0,.66-0.03a4.991,4.991,0,0,1-.22-1.45A5.754,5.754,0,0,1,1979.54,3813.84Zm-3.81-1.88a0.865,0.865,0,1,1,0,1.73A0.885,0.885,0,1,1,1975.73,3811.96Zm-4.96,1.73a0.887,0.887,0,1,1,0-1.74A0.87,0.87,0,1,1,1970.77,3813.69Z" transform="translate(-1966 -3809)"/>
</svg>
