<svg xmlns="http://www.w3.org/2000/svg" width="17.97" height="15" viewBox="0 0 17.97 15">
  <metadata><?xpacket begin="﻿" id="W5M0MpCehiHzreSzNTczkc9d"?>
<x:xmpmeta xmlns:x="adobe:ns:meta/" x:xmptk="Adobe XMP Core 5.6-c140 79.160451, 2017/05/06-01:08:21        ">
   <rdf:RDF xmlns:rdf="http://www.w3.org/1999/02/22-rdf-syntax-ns#">
      <rdf:Description rdf:about=""/>
   </rdf:RDF>
</x:xmpmeta>
                                                                                                    
                                                                                                    
                                                                                                    
                                                                                                    
                                                                                                    
                                                                                                    
                                                                                                    
                                                                                                    
                                                                                                    
                                                                                                    
                                                                                                    
                                                                                                    
                                                                                                    
                                                                                                    
                                                                                                    
                                                                                                    
                                                                                                    
                                                                                                    
                                                                                                    
                                                                                                    
                           
<?xpacket end="w"?></metadata>
<defs>
    <style>
      .cls-1 {
        fill: #c4c5c8;
        fill-rule: evenodd;
      }
    </style>
  </defs>
  <path id="微博" class="cls-1" d="M2017.22,3816.19a0.17,0.17,0,0,1-.07-0.01,0.339,0.339,0,0,1-.25-0.41,2.158,2.158,0,0,0-.26-2.02,2.252,2.252,0,0,0-1.89-.32,0.344,0.344,0,0,1-.16-0.67,2.881,2.881,0,0,1,2.52.5,2.8,2.8,0,0,1,.44,2.66A0.341,0.341,0,0,1,2017.22,3816.19Zm2.18,0.94a0.22,0.22,0,0,1-.08-0.01,0.447,0.447,0,0,1-.36-0.52c0.37-2.34.07-3.97-.9-4.86-1.5-1.38-4.18-.6-4.21-0.59a0.446,0.446,0,0,1-.55-0.31,0.472,0.472,0,0,1,.31-0.57c0.12-.04,3.16-0.93,5.03.78,1.22,1.11,1.62,3.03,1.19,5.7A0.44,0.44,0,0,1,2019.4,3817.13Zm-4.06,0s1.85-4.53-4.3-2.27c0.19-2.38-.81-3.82-3.81-2.06,0,0-9.74,6.82-2.63,11.17,0,0,8.94,3.82,12.99-3.26A2.67,2.67,0,0,0,2015.34,3817.13Zm-5.77,6.84c-2.95.35-5.53-1.01-5.76-3.04s1.99-3.95,4.95-4.3,5.54,1.01,5.76,3.03S2012.53,3823.62,2009.57,3823.97Zm2.14-3.65a2.7,2.7,0,0,0-3.1-2.24,2.747,2.747,0,0,0-2.67,2.78,2.706,2.706,0,0,0,3.11,2.24A2.745,2.745,0,0,0,2011.71,3820.32Zm-3.78,1.76a0.861,0.861,0,1,1,0-1.72A0.861,0.861,0,1,1,2007.93,3822.08Zm1.55-1.45a0.41,0.41,0,1,1,.4-0.41A0.4,0.4,0,0,1,2009.48,3820.63Z" transform="translate(-2002.03 -3810)"/>
</svg>
